<?xml version="1.0" encoding="UTF-8"?>
<svg width="22px" height="19px" viewBox="0 0 22 19" version="1.1" xmlns="http://www.w3.org/2000/svg" xmlns:xlink="http://www.w3.org/1999/xlink">
    <!-- Generator: Sketch 51.1 (57501) - http://www.bohemiancoding.com/sketch -->
    <title>deposit/deposit</title>
    <desc>Created with Sketch.</desc>
    <defs></defs>
    <g id="Page-1" stroke="none" stroke-width="1" fill="none" fill-rule="evenodd">
        <g id="Dion_New1" transform="translate(-20.000000, -394.000000)" fill="#D9DBE2" fill-rule="nonzero">
            <g id="deposit" transform="translate(20.000000, 394.000000)">
                <g id="Group">
                    <path d="M12.4055556,0.183870968 C10.6027778,0.183870968 8.92222222,0.70483871 7.51666667,1.56290323 C7.36388889,1.65483871 7.27222222,1.80806452 7.27222222,1.96129032 L7.08888889,3.92258065 C7.08888889,4.01451613 7.15,4.10645161 7.27222222,4.10645161 L7.425,4.10645161 C7.94444444,4.10645161 8.37222222,4.41290323 8.55555556,4.87258065 C8.73888889,5.33225806 8.61666667,5.82258065 8.25,6.15967742 L4.82777778,9.31612903 C4.61388889,9.53064516 4.30833333,9.62258065 4.00277778,9.62258065 C3.85,9.62258065 3.72777778,9.59193548 3.575,9.56129032 C3.48333333,9.53064516 3.39166667,9.43870968 3.26944444,9.37741935 C3.20833333,9.31612903 3.11666667,9.37741935 3.11666667,9.46935484 C3.11666667,9.46935484 3.11666667,9.5 3.11666667,9.5 C3.11666667,14.8629032 7.60833333,19.1532258 13.0166667,18.816129 C17.6611111,18.5096774 21.3888889,14.7709677 21.6944444,10.0822581 C22.0305556,4.68870968 17.7527778,0.183870968 12.4055556,0.183870968 Z M14.6666667,13.1774194 C14.2694444,13.5758065 13.7194444,13.8209677 13.0472222,13.8822581 C13.0166667,13.8822581 12.9555556,13.9129032 12.9555556,13.9741935 L12.9555556,14.9548387 C12.9555556,15.016129 12.925,15.0467742 12.8638889,15.0467742 L12.1,15.0467742 C12.0388889,15.0467742 12.0083333,15.016129 12.0083333,14.9548387 L12.0083333,13.9741935 C12.0083333,13.9435484 11.9777778,13.8822581 11.9166667,13.8822581 C11.2138889,13.7903226 10.6638889,13.5451613 10.2055556,13.116129 C9.77777778,12.7177419 9.56388889,12.166129 9.53333333,11.4612903 C9.53333333,11.4 9.53333333,11.2774194 9.53333333,11.216129 C9.53333333,11.1854839 9.56388889,11.1241935 9.625,11.1241935 L11.1222222,11.1241935 C11.1527778,11.1241935 11.2138889,11.1548387 11.2138889,11.216129 C11.2138889,11.7064516 11.3361111,12.0435484 11.5805556,12.2580645 C11.825,12.4725806 12.1305556,12.5951613 12.4972222,12.5951613 C12.8638889,12.5951613 13.1083333,12.5032258 13.3222222,12.3193548 C13.5055556,12.1354839 13.5972222,11.8903226 13.5972222,11.5532258 C13.5972222,11.2467742 13.5055556,10.9709677 13.3222222,10.7870968 C13.1388889,10.5725806 12.8333333,10.3887097 12.4055556,10.2354839 C11.55,9.92903226 10.9083333,9.56129032 10.4805556,9.16290323 C10.0527778,8.76451613 9.86944444,8.21290323 9.86944444,7.50806452 C9.86944444,6.86451613 10.0833333,6.31290323 10.5111111,5.88387097 C10.9083333,5.48548387 11.4583333,5.24032258 12.1,5.1483871 C12.1611111,5.1483871 12.1916667,5.08709677 12.1916667,5.05645161 L12.1916667,3.98387097 C12.1916667,3.92258065 12.2222222,3.89193548 12.2833333,3.89193548 L13.0166667,3.89193548 C13.0777778,3.89193548 13.1083333,3.92258065 13.1083333,3.98387097 L13.1083333,5.08709677 C13.1083333,5.1483871 13.1388889,5.17903226 13.2,5.17903226 C13.8416667,5.3016129 14.3611111,5.57741935 14.7277778,6.03709677 C15.0944444,6.46612903 15.2777778,7.0483871 15.3083333,7.72258065 C15.3083333,7.72258065 15.3083333,7.75322581 15.3083333,7.75322581 C15.3083333,7.84516129 15.2472222,7.90645161 15.1555556,7.90645161 L13.75,7.90645161 C13.6888889,7.90645161 13.6277778,7.84516129 13.6277778,7.78387097 C13.5972222,7.38548387 13.5055556,7.07903226 13.3527778,6.83387097 C13.1694444,6.58870968 12.8944444,6.46612903 12.5888889,6.46612903 C12.2527778,6.46612903 12.0083333,6.55806452 11.825,6.74193548 C11.6722222,6.92580645 11.5805556,7.2016129 11.5805556,7.50806452 C11.5805556,7.81451613 11.6722222,8.05967742 11.8555556,8.24354839 C12.0388889,8.42741935 12.3444444,8.61129032 12.8027778,8.79516129 C13.6583333,9.13225806 14.3,9.5 14.7277778,9.8983871 C15.1555556,10.2967742 15.3388889,10.8177419 15.3388889,11.5225806 C15.2777778,12.2274194 15.0638889,12.7790323 14.6666667,13.1774194 Z" id="Shape"></path>
                    <path d="M0.366666667,5.48548387 L3.78888889,8.64193548 C3.91111111,8.73387097 4.09444444,8.73387097 4.21666667,8.64193548 L7.63888889,5.48548387 C7.82222222,5.3016129 7.7,5.02580645 7.425,5.02580645 L6.38611111,5.02580645 C6.20277778,5.02580645 6.08055556,4.90322581 6.08055556,4.71935484 L6.50833333,0.459677419 C6.53888889,0.306451613 6.38611111,0.153225806 6.20277778,0.153225806 L1.77222222,0.153225806 C1.58888889,0.153225806 1.46666667,0.275806452 1.46666667,0.459677419 L1.89444444,4.71935484 C1.925,4.87258065 1.77222222,5.02580645 1.58888889,5.02580645 L0.580555556,5.02580645 C0.336111111,5.02580645 0.183333333,5.33225806 0.366666667,5.48548387 Z" id="Shape"></path>
                </g>
            </g>
        </g>
    </g>
</svg>