<?xml version="1.0" encoding="UTF-8"?>
<svg width="27px" height="23px" viewBox="0 0 27 23" version="1.1" xmlns="http://www.w3.org/2000/svg" xmlns:xlink="http://www.w3.org/1999/xlink">
    <!-- Generator: Sketch 51.1 (57501) - http://www.bohemiancoding.com/sketch -->
    <title>withdrawal/noun_Credit Card_39645</title>
    <desc>Created with Sketch.</desc>
    <defs></defs>
    <g id="Page-1" stroke="none" stroke-width="1" fill="none" fill-rule="evenodd">
        <g id="Dion_New1" transform="translate(-18.000000, -454.000000)" fill="#D9DBE2" fill-rule="nonzero">
            <g id="noun_Credit-Card_39645" transform="translate(18.000000, 454.000000)">
                <path d="M14.1,17.5401974 C14.1,17.2418026 13.8603,17 13.5645,17 L3.5355,17 C3.2397,17 3,17.2418026 3,17.5401974 L3,17.6703289 C3,17.9687237 3.2397,18.2105263 3.5355,18.2105263 L13.5645,18.2105263 C13.8603,18.2105263 14.1,17.9687237 14.1,17.6703289 L14.1,17.5401974 Z" id="Shape"></path>
                <path d="M9.6,20.5401974 C9.6,20.2418026 9.3603,20 9.0648,20 L3.5352,20 C3.2397,20 3,20.2418026 3,20.5401974 L3,20.6703289 C3,20.9687237 3.2397,21.2105263 3.5352,21.2105263 L9.0648,21.2105263 C9.3603,21.2105263 9.6,20.9687237 9.6,20.6703289 L9.6,20.5401974 Z" id="Shape"></path>
                <path d="M21.75,0 C18.9333,0 16.65,2.28668421 16.65,5.12778947 C16.65,6.01692105 16.8735,6.96052632 17.2671,7.56578947 L2.9502,7.56578947 C1.3785,7.56578947 0,8.8895 0,10.4746842 L0,20.0908026 C0,21.6765921 1.3785,23 2.9502,23 L20.055,23 C21.6264,23 22.8,21.6765921 22.8,20.0911053 L22.8,10.4746842 C22.8,10.36725 22.8453,10.2613289 22.8339,10.1566184 C25.1028,9.63518421 26.8236,7.59121053 26.8236,5.14473684 C26.8236,2.30332895 24.5667,0 21.75,0 Z M20.055,22.0921053 L2.9502,22.0921053 C1.8747,22.0921053 0.9,21.1760395 0.9,20.0911053 L0.9,14.5263158 L21.9,14.5263158 L21.9,20.0911053 C21.9,21.1760395 21.1302,22.0921053 20.055,22.0921053 Z M21.9,10.4746842 L21.9,11.1973684 L0.9,11.1973684 L0.9,10.4746842 C0.9,9.39005263 1.8747,8.47368421 2.9502,8.47368421 L17.8959,8.47368421 C18.831,9.68421053 20.2092,10.2725263 21.75,10.2725263 C21.8325,10.2725263 21.8607,10.2725263 21.9426,10.2685921 C21.9489,10.3336579 21.9,10.4081053 21.9,10.4746842 Z M25.5,5.30664474 C25.5,5.88588158 25.0347,6.35526316 24.4605,6.35526316 L19.0395,6.35526316 C18.4653,6.35526316 18,5.88588158 18,5.30664474 L18,5.28546053 C18,4.70622368 18.4653,4.23684211 19.0395,4.23684211 L24.4605,4.23684211 C25.0347,4.23684211 25.5,4.70622368 25.5,5.28546053 L25.5,5.30664474 Z" id="Shape"></path>
            </g>
        </g>
    </g>
</svg>