<?xml version="1.0" encoding="UTF-8"?>
<svg width="21px" height="21px" viewBox="0 0 21 21" version="1.1" xmlns="http://www.w3.org/2000/svg" xmlns:xlink="http://www.w3.org/1999/xlink">
    <!-- Generator: Sketch 51.1 (57501) - http://www.bohemiancoding.com/sketch -->
    <title>settings/Settings</title>
    <desc>Created with Sketch.</desc>
    <defs></defs>
    <g id="Page-1" stroke="none" stroke-width="1" fill="none" fill-rule="evenodd">
        <g id="Dion_New1" transform="translate(-21.000000, -589.000000)" fill="#D9DBE2" fill-rule="nonzero">
            <g id="Settings" transform="translate(21.000000, 589.000000)">
                <path d="M7.58357075,5.85642805 C8.53744532,5.85642805 9.31071345,6.62969617 9.31071345,7.58357075 C9.31071345,8.53744532 8.53744532,9.31071345 7.58357075,9.31071345 C6.62969617,9.31071345 5.85642805,8.53744532 5.85642805,7.58357075 C5.85760871,6.63018565 6.63018565,5.85760871 7.58357075,5.85642805 Z M9.23571346,10.6414276 C7.71667055,11.4625315 5.82521741,11.0447562 4.79334622,9.66021848 C3.76147502,8.27568075 3.90171352,6.34372208 5.1227178,5.1227178 C6.34372208,3.90171352 8.27568075,3.76147502 9.66021848,4.79334622 C11.0447562,5.82521741 11.4625315,7.71667055 10.6414276,9.23571346 C11.2921625,8.90056569 12.0741015,8.94825493 12.6792846,9.35999916 C12.8584491,8.41616086 13.6835917,7.73319114 14.6442844,7.73357073 L15.1671415,7.73357073 L15.1671415,7.09071365 C15.1653019,6.66798925 14.8612779,6.3071299 14.4449987,6.23357087 L13.3092845,6.03428517 C13.1759632,5.53931004 12.9785804,5.06386237 12.7221417,4.61999958 L13.3842845,3.67499967 C13.6184597,3.33061611 13.5772153,2.8688582 13.2857131,2.57142834 L12.6042846,1.87928555 C12.3040438,1.58036141 11.8326829,1.53972685 11.4857133,1.78285698 L10.5407133,2.44499978 C10.0968832,2.18849511 9.62142662,1.99110861 9.12642775,1.85785698 L8.92714205,0.722142792 C8.85358303,0.305863592 8.49272368,0.00183958888 8.06999927,0 L7.10571365,0 C6.68298925,0.00183958888 6.3221299,0.305863592 6.24857087,0.722142792 L6.04928517,1.85785698 C5.55427838,1.99108534 5.07881888,2.18847307 4.63499958,2.44499978 L3.68142824,1.78285698 C3.33620795,1.54454543 2.87038167,1.58501296 2.57142834,1.87928555 L1.87928555,2.57142834 C1.57918912,2.87198571 1.53851233,3.34474032 1.78285698,3.69214253 L2.44499978,4.63714244 C2.18864892,5.08104858 1.99127099,5.55648447 1.85785698,6.05142803 L0.722142792,6.25071372 C0.305863592,6.32427275 0.00183958888,6.6851321 0,7.1078565 L0,8.07214213 C0.00183958888,8.49486653 0.305863592,8.85572588 0.722142792,8.92928491 L1.85785698,9.12857061 C1.99115509,9.62355365 2.18853913,10.0990043 2.44499978,10.5428562 L1.78285698,11.4835704 C1.53851233,11.8309726 1.57918912,12.3037272 1.87928555,12.6042846 L2.57142834,13.2857131 C2.87143866,13.5864858 3.34423605,13.6280703 3.69214253,13.3842845 L4.63714244,12.7221417 C5.08102692,12.9785364 5.55646869,13.1759168 6.05142803,13.3092845 L6.25071372,14.4449987 C6.32427275,14.8612779 6.6851321,15.1653019 7.1078565,15.1671415 L7.75071359,15.1671415 L7.75071359,14.6442844 C7.75033399,13.6835917 8.43330371,12.8584491 9.37714201,12.6792846 C8.95988242,12.0773247 8.9056063,11.2952552 9.23571346,10.6414276 Z M20.9999981,14.6442844 L20.9999981,15.4028558 C20.9956075,15.7338294 20.7561111,16.0147424 20.4299982,16.0714271 L19.534284,16.2278557 C19.4304488,16.6230403 19.2748142,17.0027598 19.0714269,17.3571413 L19.594284,18.1028555 C19.7868287,18.3767051 19.7542626,18.7494066 19.5171411,18.9857126 L18.979284,19.5235697 C18.742978,19.7606912 18.3702766,19.7932573 18.0964269,19.6007125 L17.3571413,19.0714269 C17.0074346,19.2735396 16.6328416,19.4291398 16.2428557,19.534284 L16.0714271,20.4299982 C16.0147424,20.7561111 15.7338294,20.9956075 15.4028558,20.9999981 L14.6442844,20.9999981 C14.3092587,21.0007775 14.0224011,20.7600705 13.9649987,20.4299982 L13.8085702,19.534284 C13.4185842,19.4291398 13.0439913,19.2735396 12.6942846,19.0714269 L11.9485704,19.594284 C11.6747207,19.7868287 11.3020193,19.7542626 11.0657133,19.5171411 L10.5278562,18.979284 C10.2907347,18.742978 10.2581686,18.3702766 10.4507133,18.0964269 L10.9757133,17.3571413 C10.7735786,17.0074455 10.6179772,16.6328495 10.5128562,16.2428557 L9.61714199,16.0714271 C9.28706964,16.0140247 9.04636263,15.7271671 9.04714204,15.3921415 L9.04714204,14.6442844 C9.04636263,14.3092587 9.28706964,14.0224011 9.61714199,13.9649987 L10.5128562,13.8085702 C10.6180467,13.4186 10.7736444,13.044013 10.9757133,12.6942846 L10.4528562,11.9507132 C10.2603114,11.6768636 10.2928776,11.3041621 10.5299991,11.0678561 L11.0678561,10.5299991 C11.3041621,10.2928776 11.6768636,10.2603114 11.9507132,10.4528562 L12.6942846,10.9757133 C13.0439695,10.7735566 13.4185684,10.617954 13.8085702,10.5128562 L13.9649987,9.61714199 C14.0224011,9.28706964 14.3092587,9.04636263 14.6442844,9.04714204 L15.4028558,9.04714204 C15.7338294,9.0515327 16.0147424,9.29102901 16.0714271,9.61714199 L16.2278557,10.5128562 C16.6230323,10.6167152 17.0027488,10.7723485 17.3571413,10.9757133 L18.1007127,10.4528562 C18.3745623,10.2603114 18.7472638,10.2928776 18.9835697,10.5299991 L19.5214268,11.0678561 C19.7585483,11.3041621 19.7911145,11.6768636 19.5985697,11.9507132 L19.0714269,12.6942846 C19.2735616,13.0439804 19.429163,13.4185763 19.534284,13.8085702 L20.4299982,13.9649987 C20.7600705,14.0224011 21.0007775,14.3092587 20.9999981,14.6442844 Z M17.0742842,15.0235701 C17.0742842,14.1941336 16.5746437,13.4463689 15.8083444,13.1289573 C15.042045,12.8115457 14.1599964,12.9869961 13.5734962,13.5734962 C12.9869961,14.1599964 12.8115457,15.042045 13.1289573,15.8083444 C13.4463689,16.5746437 14.1941336,17.0742842 15.0235701,17.0742842 C16.1561482,17.0742842 17.0742842,16.1561482 17.0742842,15.0235701 Z" id="Shape"></path>
            </g>
        </g>
    </g>
</svg>