<?xml version="1.0" encoding="UTF-8"?>
<svg width="23px" height="20px" viewBox="0 0 23 20" version="1.1" xmlns="http://www.w3.org/2000/svg" xmlns:xlink="http://www.w3.org/1999/xlink">
    <!-- Generator: Sketch 51.1 (57501) - http://www.bohemiancoding.com/sketch -->
    <title>dashboard/Shape</title>
    <desc>Created with Sketch.</desc>
    <defs></defs>
    <g id="Page-1" stroke="none" stroke-width="1" fill="none" fill-rule="evenodd">
        <g id="Dion_New1" transform="translate(-20.000000, -259.000000)" fill="#23B4D8" fill-rule="nonzero">
            <g id="home" transform="translate(20.000000, 259.000000)">
                <path d="M22.252918,9.00609756 L12.3102096,0.347560976 C11.7831263,-0.115853659 10.9925013,-0.115853659 10.4414596,0.347560976 L0.498751313,9.00609756 C-0.124165354,9.54268293 -0.172082021,10.5182927 0.402917979,11.1280488 C0.930001313,11.6890244 1.81645965,11.6890244 2.39145965,11.1768293 L3.66125131,10.0792683 L3.66125131,17.9817073 C3.66125131,18.9329268 4.42791798,19.7134146 5.36229298,19.7134146 L8.04562631,19.7134146 C8.59666798,19.7134146 9.05187631,19.25 9.05187631,18.6890244 L9.05187631,14.347561 C9.05187631,13.6158537 9.65083465,13.0060976 10.3695846,13.0060976 L12.406043,13.0060976 C13.124793,13.0060976 13.7237513,13.6158537 13.7237513,14.347561 L13.7237513,18.6890244 C13.7237513,19.25 14.1789596,19.7134146 14.7300013,19.7134146 L17.4133346,19.7134146 C18.3477096,19.7134146 19.1143763,18.9329268 19.1143763,17.9817073 L19.1143763,10.1036585 L20.4081263,11.2256098 C20.671668,11.4695122 21.0070846,11.5670732 21.3425013,11.5670732 C21.749793,11.5670732 22.1570846,11.3963415 22.4206263,11.054878 C22.9237513,10.4695122 22.8518763,9.54268293 22.252918,9.00609756 Z" id="Shape"></path>
            </g>
        </g>
    </g>
</svg>