<?xml version="1.0" encoding="UTF-8"?>
<svg width="20px" height="30px" viewBox="0 0 20 30" version="1.1" xmlns="http://www.w3.org/2000/svg" xmlns:xlink="http://www.w3.org/1999/xlink">
    <!-- Generator: Sketch 51.1 (57501) - http://www.bohemiancoding.com/sketch -->
    <title>transactions/transaction</title>
    <desc>Created with Sketch.</desc>
    <defs></defs>
    <g id="Page-1" stroke="none" stroke-width="1" fill="none" fill-rule="evenodd">
        <g id="Dion_New1" transform="translate(-19.000000, -518.000000)" fill="#D9DBE2" fill-rule="nonzero">
            <g id="transaction" transform="translate(19.000000, 518.000000)">
                <g id="Group">
                    <g transform="translate(1.000000, 0.000000)" id="Shape">
                        <path d="M5.3,23.55 C5.3,23.8 5.3,24 5.3,24.2 C5.35,24.2 5.35,24.25 5.4,24.25 C7.3,24.25 9.25,24.35 11.15,24.05 C13.45,23.7 15.55,22.95 17.45,21.55 C17.5,21.55 17.5,21.5 17.6,21.5 C17.55,21.7 17.55,21.85 17.5,22 C16.65,24.75 15.1,26.9 12.4,28.1 C11.15,28.65 9.8,28.85 8.4,28.85 C7.5,28.85 6.6,28.85 5.75,28.85 C5.65,28.85 5.5,28.85 5.4,28.85 C5.4,29.1 5.4,29.25 5.4,29.55 C3.75,28.5 2.15,27.45 0.45,26.4 C2.05,25.45 3.65,24.5 5.3,23.55 Z"></path>
                        <path d="M12.65,6.45 C12.65,6.2 12.65,6 12.65,5.8 C12.6,5.8 12.6,5.75 12.55,5.75 C10.65,5.75 8.7,5.6 6.8,5.9 C4.5,6.25 2.4,7 0.45,8.3 C0.4,8.3 0.4,8.35 0.3,8.35 C0.35,8.15 0.35,8 0.4,7.85 C1.25,5.1 2.85,3 5.55,1.8 C6.85,1.25 8.2,1.1 9.55,1.1 C10.45,1.1 11.35,1.1 12.2,1.15 C12.3,1.15 12.45,1.15 12.55,1.15 C12.55,0.9 12.55,0.75 12.55,0.45 C14.2,1.5 15.8,2.55 17.45,3.65 C15.95,4.6 14.35,5.5 12.65,6.45 Z"></path>
                    </g>
                    <g transform="translate(0.000000, 9.500000)">
                        <g transform="translate(3.500000, 2.000000)">
                            <path d="M6.5,0.35 C4.75,0.35 3.35,1.75 3.35,3.5 C3.35,5.25 4.75,6.65 6.5,6.65 C8.25,6.65 9.65,5.25 9.65,3.5 C9.65,1.75 8.25,0.35 6.5,0.35 Z M7.85,4.95 C7.75,5.1 7.65,5.25 7.5,5.35 C7.35,5.45 7.15,5.55 6.95,5.6 C6.85,5.6 6.8,5.65 6.7,5.65 L6.7,6 L6.2,6 L6.2,5.65 C6.1,5.65 5.95,5.65 5.85,5.6 C5.7,5.6 5.6,5.55 5.5,5.5 C5.4,5.45 5.3,5.45 5.25,5.4 C5.2,5.35 5.15,5.35 5.1,5.3 C5.05,5.25 5.05,5.2 5.05,5.15 C5.05,5.1 5,5 5,4.85 C5,4.75 5,4.7 5,4.65 C5,4.6 5,4.55 5.05,4.55 C5.05,4.5 5.1,4.5 5.1,4.5 C5.1,4.5 5.15,4.5 5.15,4.5 C5.2,4.5 5.25,4.5 5.3,4.55 C5.35,4.6 5.45,4.65 5.55,4.65 C5.65,4.7 5.75,4.75 5.9,4.75 C6,4.8 6.15,4.8 6.3,4.8 C6.4,4.8 6.5,4.8 6.55,4.75 C6.65,4.75 6.7,4.7 6.75,4.65 C6.8,4.6 6.85,4.55 6.9,4.5 C6.95,4.45 6.95,4.35 6.95,4.3 C6.95,4.2 6.9,4.15 6.85,4.1 C6.8,4.05 6.7,4 6.65,3.95 C6.55,3.9 6.45,3.85 6.35,3.8 C6.25,3.75 6.1,3.7 6,3.65 C5.9,3.6 5.75,3.55 5.65,3.5 C5.55,3.45 5.45,3.35 5.35,3.25 C5.25,3.15 5.2,3.05 5.15,2.9 C5.1,2.75 5.05,2.6 5.05,2.45 C5.05,2.25 5.1,2.1 5.15,1.95 C5.2,1.8 5.35,1.65 5.45,1.55 C5.6,1.45 5.75,1.35 5.95,1.3 C6.05,1.25 6.15,1.25 6.25,1.25 L6.25,0.9 L6.75,0.9 L6.75,1.25 C6.85,1.25 6.9,1.25 7,1.25 C7.1,1.25 7.2,1.3 7.3,1.3 C7.4,1.35 7.45,1.35 7.55,1.4 C7.6,1.45 7.65,1.45 7.7,1.5 C7.75,1.5 7.75,1.55 7.75,1.55 C7.75,1.55 7.75,1.6 7.8,1.65 C7.8,1.7 7.8,1.7 7.8,1.75 C7.8,1.8 7.8,1.85 7.8,1.9 C7.8,2 7.8,2.05 7.8,2.1 C7.8,2.15 7.8,2.2 7.8,2.2 C7.8,2.25 7.8,2.25 7.75,2.25 C7.75,2.25 7.7,2.25 7.7,2.25 C7.65,2.25 7.65,2.25 7.6,2.2 C7.55,2.15 7.5,2.15 7.4,2.1 C7.3,2.05 7.2,2.05 7.1,2 C7,1.95 6.85,1.95 6.75,1.95 C6.65,1.95 6.55,1.95 6.5,2 C6.45,2 6.35,2.05 6.3,2.1 C6.25,2.15 6.2,2.2 6.2,2.25 C6.2,2.3 6.15,2.35 6.15,2.4 C6.15,2.5 6.2,2.55 6.25,2.65 C6.3,2.7 6.4,2.75 6.45,2.8 C6.55,2.85 6.65,2.9 6.75,2.95 C6.85,3 7,3.05 7.1,3.1 C7.2,3.15 7.35,3.2 7.45,3.25 C7.55,3.3 7.65,3.4 7.75,3.5 C7.85,3.6 7.9,3.7 7.95,3.85 C8,4 8.05,4.15 8.05,4.3 C8,4.55 7.95,4.75 7.85,4.95 Z" id="Shape"></path>
                            <circle id="Oval" cx="1.1" cy="3.5" r="1.05"></circle>
                            <circle id="Oval" cx="11.9" cy="3.5" r="1.05"></circle>
                        </g>
                        <path d="M18.9,0.05 L1.1,0.05 C0.6,0.05 0.2,0.4 0.2,0.85 L0.2,10.15 C0.2,10.6 0.6,10.95 1.1,10.95 L18.9,10.95 C19.4,10.95 19.8,10.6 19.8,10.15 L19.8,0.85 C19.8,0.4 19.4,0.05 18.9,0.05 Z M1.6,8 L1.6,3.4 C2.2,3.4 3.65,3.2 3.65,1.3 L16.3,1.3 C16.3,1.9 16.55,3.3 18.35,3.35 L18.35,7.95 C17.75,7.95 16.55,8.2 16.4,9.65 L3.7,9.65 C3.6,9 3.2,8 1.6,8 Z" id="Shape"></path>
                    </g>
                </g>
            </g>
        </g>
    </g>
</svg>