<?xml version="1.0" encoding="UTF-8"?>
<svg width="26px" height="17px" viewBox="0 0 26 17" version="1.1" xmlns="http://www.w3.org/2000/svg" xmlns:xlink="http://www.w3.org/1999/xlink">
    <!-- Generator: Sketch 51.1 (57501) - http://www.bohemiancoding.com/sketch -->
    <title>users/users</title>
    <desc>Created with Sketch.</desc>
    <defs></defs>
    <g id="Page-1" stroke="none" stroke-width="1" fill="none" fill-rule="evenodd">
        <g id="Dion_New1" transform="translate(-18.000000, -327.000000)" fill="#D9DBE2" fill-rule="nonzero">
            <g id="users" transform="translate(18.000000, 327.000000)">
                <g id="Group">
                    <ellipse id="Oval" cx="13" cy="3.49107143" rx="3.44651163" ry="3.46071429"></ellipse>
                    <ellipse id="Oval" cx="20.7395349" cy="4.28035714" rx="2.56976744" ry="2.58035714"></ellipse>
                    <path d="M25.8488372,12.9625 C25.3348837,9.71428571 23.6418605,7.77142857 20.7395349,7.77142857 C19.6209302,7.77142857 18.7139535,8.04464286 17.9581395,8.59107143 C18.0488372,8.68214286 18.1395349,8.77321429 18.2604651,8.86428571 C19.5,10.1696429 20.3465116,12.0517857 20.7395349,14.45 C20.7395349,14.5410714 20.7697674,14.6321429 20.7697674,14.6928571 C23.5813953,14.7232143 26.0604651,14.2375 25.8488372,12.9625 Z" id="Shape"></path>
                    <ellipse id="Oval" cx="5.26046512" cy="4.28035714" rx="2.56976744" ry="2.58035714"></ellipse>
                    <path d="M7.76976744,8.86428571 C7.86046512,8.77321429 7.95116279,8.68214286 8.04186047,8.59107143 C7.28604651,8.04464286 6.34883721,7.77142857 5.26046512,7.77142857 C2.38837209,7.77142857 0.695348837,9.68392857 0.151162791,12.9625 C-0.0604651163,14.2375 2.44883721,14.7232143 5.26046512,14.7232143 C5.26046512,14.6321429 5.26046512,14.5410714 5.29069767,14.4803571 C5.65348837,12.0821429 6.5,10.2 7.76976744,8.86428571 Z" id="Shape"></path>
                    <path d="M13,16.9696429 C9.22093023,16.9696429 5.89534884,16.3017857 6.16744186,14.6321429 C6.89302326,10.2607143 9.16046512,7.71071429 13,7.71071429 C16.8395349,7.71071429 19.1069767,10.2910714 19.8325581,14.6321429 C20.1046512,16.3017857 16.7790698,16.9696429 13,16.9696429 Z" id="Shape"></path>
                </g>
            </g>
        </g>
    </g>
</svg>