<svg id="Layer_1" data-name="Layer 1" xmlns="http://www.w3.org/2000/svg" viewBox="0 0 542.69 542.69"><defs><style>.cls-1{fill:#b1becc;}</style></defs><title>iconforone</title><path class="cls-1" d="M591.41,375.65c0,50.64-18.79,78.59-51.78,78.59-29.1,0-48.81-27.27-49.26-76.53,0-49.95,21.53-77.44,51.78-77.44C573.54,300.27,591.41,328.22,591.41,375.65Zm-80.88,2.29c0,38.72,11.91,60.72,30.24,60.72,20.62,0,30.48-24.06,30.48-62.09,0-36.67-9.4-60.72-30.25-60.72C523.36,315.85,510.53,337.38,510.53,377.94Z" transform="translate(-328.31 -113.12)"/><path class="cls-1" d="M653.73,321.57h-.46l-25.89,14-3.89-15.35L656,302.79h17.19V451.72H653.73Z" transform="translate(-328.31 -113.12)"/><path class="cls-1" d="M599.66,113.12c-149.86,0-271.35,121.5-271.35,271.35S449.8,655.81,599.66,655.81,871,534.32,871,384.47,749.51,113.12,599.66,113.12Zm0,503.3c-128.1,0-232-103.85-232-231.95s103.86-232,232-232,232,103.86,232,232S727.76,616.42,599.66,616.42Z" transform="translate(-328.31 -113.12)"/></svg>